# Tiled2Unity generated file. Do not modify by hand.
# Wavefront file for 'OOverworld2_mesh_0002.obj'

# Vertices (Count = 996)
v -384 -16 0
v -400 -16 0
v -400 0 0
v -384 0 0
v -368 -16 0
v -384 -16 0
v -384 0 0
v -368 0 0
v -352 -16 0
v -368 -16 0
v -368 0 0
v -352 0 0
v -336 -16 0
v -352 -16 0
v -352 0 0
v -336 0 0
v -320 -16 0
v -336 -16 0
v -336 0 0
v -320 0 0
v -304 -16 0
v -320 -16 0
v -320 0 0
v -304 0 0
v -288 -16 0
v -304 -16 0
v -304 0 0
v -288 0 0
v -272 -16 0
v -288 -16 0
v -288 0 0
v -272 0 0
v -256 -16 0
v -272 -16 0
v -272 0 0
v -256 0 0
v -240 -16 0
v -256 -16 0
v -256 0 0
v -240 0 0
v -224 -16 0
v -240 -16 0
v -240 0 0
v -224 0 0
v -176 -16 0
v -192 -16 0
v -192 0 0
v -176 0 0
v -160 -16 0
v -176 -16 0
v -176 0 0
v -160 0 0
v -144 -16 0
v -160 -16 0
v -160 0 0
v -144 0 0
v -128 -16 0
v -144 -16 0
v -144 0 0
v -128 0 0
v -112 -16 0
v -128 -16 0
v -128 0 0
v -112 0 0
v -96 -16 0
v -112 -16 0
v -112 0 0
v -96 0 0
v -80 -16 0
v -96 -16 0
v -96 0 0
v -80 0 0
v -64 -16 0
v -80 -16 0
v -80 0 0
v -64 0 0
v -48 -16 0
v -64 -16 0
v -64 0 0
v -48 0 0
v -32 -16 0
v -48 -16 0
v -48 0 0
v -32 0 0
v -16 -16 0
v -32 -16 0
v -32 0 0
v -16 0 0
v 0 -16 0
v -16 -16 0
v -16 0 0
v 0 0 0
v -384 -32 0
v -400 -32 0
v -400 -16 0
v -384 -16 0
v -224 -32 0
v -240 -32 0
v -240 -16 0
v -224 -16 0
v -176 -32 0
v -192 -32 0
v -192 -16 0
v -176 -16 0
v -128 -32 0
v -144 -32 0
v -144 -16 0
v -128 -16 0
v -112 -32 0
v -128 -32 0
v -128 -16 0
v -112 -16 0
v -96 -32 0
v -112 -32 0
v -112 -16 0
v -96 -16 0
v -32 -32 0
v -48 -32 0
v -48 -16 0
v -32 -16 0
v -16 -32 0
v -32 -32 0
v -32 -16 0
v -16 -16 0
v 0 -32 0
v -16 -32 0
v -16 -16 0
v 0 -16 0
v -384 -48 0
v -400 -48 0
v -400 -32 0
v -384 -32 0
v -320 -48 0
v -336 -48 0
v -336 -32 0
v -320 -32 0
v -304 -48 0
v -320 -48 0
v -320 -32 0
v -304 -32 0
v -288 -48 0
v -304 -48 0
v -304 -32 0
v -288 -32 0
v -224 -48 0
v -240 -48 0
v -240 -32 0
v -224 -32 0
v -176 -48 0
v -192 -48 0
v -192 -32 0
v -176 -32 0
v -144 -48 0
v -160 -48 0
v -160 -32 0
v -144 -32 0
v -128 -48 0
v -144 -48 0
v -144 -32 0
v -128 -32 0
v -112 -48 0
v -128 -48 0
v -128 -32 0
v -112 -32 0
v -96 -48 0
v -112 -48 0
v -112 -32 0
v -96 -32 0
v -80 -48 0
v -96 -48 0
v -96 -32 0
v -80 -32 0
v -32 -48 0
v -48 -48 0
v -48 -32 0
v -32 -32 0
v -16 -48 0
v -32 -48 0
v -32 -32 0
v -16 -32 0
v 0 -48 0
v -16 -48 0
v -16 -32 0
v 0 -32 0
v -384 -64 0
v -400 -64 0
v -400 -48 0
v -384 -48 0
v -336 -64 0
v -352 -64 0
v -352 -48 0
v -336 -48 0
v -320 -64 0
v -336 -64 0
v -336 -48 0
v -320 -48 0
v -304 -64 0
v -320 -64 0
v -320 -48 0
v -304 -48 0
v -288 -64 0
v -304 -64 0
v -304 -48 0
v -288 -48 0
v -272 -64 0
v -288 -64 0
v -288 -48 0
v -272 -48 0
v -224 -64 0
v -240 -64 0
v -240 -48 0
v -224 -48 0
v -176 -64 0
v -192 -64 0
v -192 -48 0
v -176 -48 0
v 0 -64 0
v -16 -64 0
v -16 -48 0
v 0 -48 0
v -384 -80 0
v -400 -80 0
v -400 -64 0
v -384 -64 0
v -336 -80 0
v -352 -80 0
v -352 -64 0
v -336 -64 0
v -320 -80 0
v -336 -80 0
v -336 -64 0
v -320 -64 0
v -304 -80 0
v -320 -80 0
v -320 -64 0
v -304 -64 0
v -288 -80 0
v -304 -80 0
v -304 -64 0
v -288 -64 0
v -272 -80 0
v -288 -80 0
v -288 -64 0
v -272 -64 0
v -224 -80 0
v -240 -80 0
v -240 -64 0
v -224 -64 0
v -176 -80 0
v -192 -80 0
v -192 -64 0
v -176 -64 0
v -144 -80 0
v -160 -80 0
v -160 -64 0
v -144 -64 0
v -128 -80 0
v -144 -80 0
v -144 -64 0
v -128 -64 0
v 0 -80 0
v -16 -80 0
v -16 -64 0
v 0 -64 0
v -384 -96 0
v -400 -96 0
v -400 -80 0
v -384 -80 0
v -224 -96 0
v -240 -96 0
v -240 -80 0
v -224 -80 0
v -176 -96 0
v -192 -96 0
v -192 -80 0
v -176 -80 0
v -144 -96 0
v -160 -96 0
v -160 -80 0
v -144 -80 0
v -128 -96 0
v -144 -96 0
v -144 -80 0
v -128 -80 0
v 0 -96 0
v -16 -96 0
v -16 -80 0
v 0 -80 0
v -384 -112 0
v -400 -112 0
v -400 -96 0
v -384 -96 0
v -224 -112 0
v -240 -112 0
v -240 -96 0
v -224 -96 0
v -176 -112 0
v -192 -112 0
v -192 -96 0
v -176 -96 0
v 0 -112 0
v -16 -112 0
v -16 -96 0
v 0 -96 0
v -384 -128 0
v -400 -128 0
v -400 -112 0
v -384 -112 0
v -368 -128 0
v -384 -128 0
v -384 -112 0
v -368 -112 0
v -352 -128 0
v -368 -128 0
v -368 -112 0
v -352 -112 0
v -336 -128 0
v -352 -128 0
v -352 -112 0
v -336 -112 0
v -320 -128 0
v -336 -128 0
v -336 -112 0
v -320 -112 0
v -304 -128 0
v -320 -128 0
v -320 -112 0
v -304 -112 0
v -288 -128 0
v -304 -128 0
v -304 -112 0
v -288 -112 0
v -272 -128 0
v -288 -128 0
v -288 -112 0
v -272 -112 0
v -256 -128 0
v -272 -128 0
v -272 -112 0
v -256 -112 0
v -240 -128 0
v -256 -128 0
v -256 -112 0
v -240 -112 0
v -224 -128 0
v -240 -128 0
v -240 -112 0
v -224 -112 0
v -176 -128 0
v -192 -128 0
v -192 -112 0
v -176 -112 0
v -64 -128 0
v -80 -128 0
v -80 -112 0
v -64 -112 0
v -48 -128 0
v -64 -128 0
v -64 -112 0
v -48 -112 0
v 0 -128 0
v -16 -128 0
v -16 -112 0
v 0 -112 0
v -384 -144 0
v -400 -144 0
v -400 -128 0
v -384 -128 0
v -176 -144 0
v -192 -144 0
v -192 -128 0
v -176 -128 0
v -64 -144 0
v -80 -144 0
v -80 -128 0
v -64 -128 0
v -48 -144 0
v -64 -144 0
v -64 -128 0
v -48 -128 0
v 0 -144 0
v -16 -144 0
v -16 -128 0
v 0 -128 0
v -384 -160 0
v -400 -160 0
v -400 -144 0
v -384 -144 0
v -336 -160 0
v -352 -160 0
v -352 -144 0
v -336 -144 0
v -320 -160 0
v -336 -160 0
v -336 -144 0
v -320 -144 0
v -304 -160 0
v -320 -160 0
v -320 -144 0
v -304 -144 0
v -288 -160 0
v -304 -160 0
v -304 -144 0
v -288 -144 0
v -272 -160 0
v -288 -160 0
v -288 -144 0
v -272 -144 0
v -256 -160 0
v -272 -160 0
v -272 -144 0
v -256 -144 0
v -240 -160 0
v -256 -160 0
v -256 -144 0
v -240 -144 0
v -224 -160 0
v -240 -160 0
v -240 -144 0
v -224 -144 0
v -208 -160 0
v -224 -160 0
v -224 -144 0
v -208 -144 0
v -192 -160 0
v -208 -160 0
v -208 -144 0
v -192 -144 0
v -176 -160 0
v -192 -160 0
v -192 -144 0
v -176 -144 0
v 0 -160 0
v -16 -160 0
v -16 -144 0
v 0 -144 0
v -384 -176 0
v -400 -176 0
v -400 -160 0
v -384 -160 0
v -336 -176 0
v -352 -176 0
v -352 -160 0
v -336 -160 0
v -144 -176 0
v -160 -176 0
v -160 -160 0
v -144 -160 0
v -128 -176 0
v -144 -176 0
v -144 -160 0
v -128 -160 0
v 0 -176 0
v -16 -176 0
v -16 -160 0
v 0 -160 0
v -384 -192 0
v -400 -192 0
v -400 -176 0
v -384 -176 0
v -336 -192 0
v -352 -192 0
v -352 -176 0
v -336 -176 0
v -288 -192 0
v -304 -192 0
v -304 -176 0
v -288 -176 0
v -272 -192 0
v -288 -192 0
v -288 -176 0
v -272 -176 0
v -240 -192 0
v -256 -192 0
v -256 -176 0
v -240 -176 0
v -144 -192 0
v -160 -192 0
v -160 -176 0
v -144 -176 0
v -128 -192 0
v -144 -192 0
v -144 -176 0
v -128 -176 0
v 0 -192 0
v -16 -192 0
v -16 -176 0
v 0 -176 0
v -384 -208 0
v -400 -208 0
v -400 -192 0
v -384 -192 0
v -336 -208 0
v -352 -208 0
v -352 -192 0
v -336 -192 0
v -272 -208 0
v -288 -208 0
v -288 -192 0
v -272 -192 0
v -256 -208 0
v -272 -208 0
v -272 -192 0
v -256 -192 0
v 0 -208 0
v -16 -208 0
v -16 -192 0
v 0 -192 0
v -384 -224 0
v -400 -224 0
v -400 -208 0
v -384 -208 0
v -336 -224 0
v -352 -224 0
v -352 -208 0
v -336 -208 0
v -272 -224 0
v -288 -224 0
v -288 -208 0
v -272 -208 0
v -256 -224 0
v -272 -224 0
v -272 -208 0
v -256 -208 0
v -64 -224 0
v -80 -224 0
v -80 -208 0
v -64 -208 0
v -48 -224 0
v -64 -224 0
v -64 -208 0
v -48 -208 0
v 0 -224 0
v -16 -224 0
v -16 -208 0
v 0 -208 0
v -384 -240 0
v -400 -240 0
v -400 -224 0
v -384 -224 0
v -336 -240 0
v -352 -240 0
v -352 -224 0
v -336 -224 0
v -288 -240 0
v -304 -240 0
v -304 -224 0
v -288 -224 0
v -64 -240 0
v -80 -240 0
v -80 -224 0
v -64 -224 0
v -48 -240 0
v -64 -240 0
v -64 -224 0
v -48 -224 0
v 0 -240 0
v -16 -240 0
v -16 -224 0
v 0 -224 0
v -384 -256 0
v -400 -256 0
v -400 -240 0
v -384 -240 0
v -336 -256 0
v -352 -256 0
v -352 -240 0
v -336 -240 0
v -144 -256 0
v -160 -256 0
v -160 -240 0
v -144 -240 0
v -128 -256 0
v -144 -256 0
v -144 -240 0
v -128 -240 0
v 0 -256 0
v -16 -256 0
v -16 -240 0
v 0 -240 0
v -384 -272 0
v -400 -272 0
v -400 -256 0
v -384 -256 0
v -336 -272 0
v -352 -272 0
v -352 -256 0
v -336 -256 0
v -144 -272 0
v -160 -272 0
v -160 -256 0
v -144 -256 0
v -128 -272 0
v -144 -272 0
v -144 -256 0
v -128 -256 0
v 0 -272 0
v -16 -272 0
v -16 -256 0
v 0 -256 0
v -384 -288 0
v -400 -288 0
v -400 -272 0
v -384 -272 0
v -336 -288 0
v -352 -288 0
v -352 -272 0
v -336 -272 0
v -320 -288 0
v -336 -288 0
v -336 -272 0
v -320 -272 0
v -304 -288 0
v -320 -288 0
v -320 -272 0
v -304 -272 0
v -288 -288 0
v -304 -288 0
v -304 -272 0
v -288 -272 0
v -272 -288 0
v -288 -288 0
v -288 -272 0
v -272 -272 0
v -256 -288 0
v -272 -288 0
v -272 -272 0
v -256 -272 0
v -240 -288 0
v -256 -288 0
v -256 -272 0
v -240 -272 0
v -224 -288 0
v -240 -288 0
v -240 -272 0
v -224 -272 0
v -208 -288 0
v -224 -288 0
v -224 -272 0
v -208 -272 0
v -192 -288 0
v -208 -288 0
v -208 -272 0
v -192 -272 0
v 0 -288 0
v -16 -288 0
v -16 -272 0
v 0 -272 0
v -384 -304 0
v -400 -304 0
v -400 -288 0
v -384 -288 0
v -176 -304 0
v -192 -304 0
v -192 -288 0
v -176 -288 0
v 0 -304 0
v -16 -304 0
v -16 -288 0
v 0 -288 0
v -384 -320 0
v -400 -320 0
v -400 -304 0
v -384 -304 0
v -176 -320 0
v -192 -320 0
v -192 -304 0
v -176 -304 0
v 0 -320 0
v -16 -320 0
v -16 -304 0
v 0 -304 0
v -384 -336 0
v -400 -336 0
v -400 -320 0
v -384 -320 0
v -368 -336 0
v -384 -336 0
v -384 -320 0
v -368 -320 0
v -352 -336 0
v -368 -336 0
v -368 -320 0
v -352 -320 0
v -336 -336 0
v -352 -336 0
v -352 -320 0
v -336 -320 0
v -320 -336 0
v -336 -336 0
v -336 -320 0
v -320 -320 0
v -304 -336 0
v -320 -336 0
v -320 -320 0
v -304 -320 0
v -288 -336 0
v -304 -336 0
v -304 -320 0
v -288 -320 0
v -272 -336 0
v -288 -336 0
v -288 -320 0
v -272 -320 0
v -256 -336 0
v -272 -336 0
v -272 -320 0
v -256 -320 0
v -240 -336 0
v -256 -336 0
v -256 -320 0
v -240 -320 0
v -224 -336 0
v -240 -336 0
v -240 -320 0
v -224 -320 0
v -176 -336 0
v -192 -336 0
v -192 -320 0
v -176 -320 0
v -144 -336 0
v -160 -336 0
v -160 -320 0
v -144 -320 0
v -128 -336 0
v -144 -336 0
v -144 -320 0
v -128 -320 0
v -112 -336 0
v -128 -336 0
v -128 -320 0
v -112 -320 0
v 0 -336 0
v -16 -336 0
v -16 -320 0
v 0 -320 0
v -384 -352 0
v -400 -352 0
v -400 -336 0
v -384 -336 0
v -368 -352 0
v -384 -352 0
v -384 -336 0
v -368 -336 0
v -352 -352 0
v -368 -352 0
v -368 -336 0
v -352 -336 0
v -336 -352 0
v -352 -352 0
v -352 -336 0
v -336 -336 0
v -288 -352 0
v -304 -352 0
v -304 -336 0
v -288 -336 0
v -272 -352 0
v -288 -352 0
v -288 -336 0
v -272 -336 0
v -256 -352 0
v -272 -352 0
v -272 -336 0
v -256 -336 0
v -224 -352 0
v -240 -352 0
v -240 -336 0
v -224 -336 0
v -176 -352 0
v -192 -352 0
v -192 -336 0
v -176 -336 0
v -32 -352 0
v -48 -352 0
v -48 -336 0
v -32 -336 0
v -16 -352 0
v -32 -352 0
v -32 -336 0
v -16 -336 0
v 0 -352 0
v -16 -352 0
v -16 -336 0
v 0 -336 0
v -384 -368 0
v -400 -368 0
v -400 -352 0
v -384 -352 0
v -368 -368 0
v -384 -368 0
v -384 -352 0
v -368 -352 0
v -352 -368 0
v -368 -368 0
v -368 -352 0
v -352 -352 0
v -336 -368 0
v -352 -368 0
v -352 -352 0
v -336 -352 0
v -320 -368 0
v -336 -368 0
v -336 -352 0
v -320 -352 0
v -304 -368 0
v -320 -368 0
v -320 -352 0
v -304 -352 0
v -288 -368 0
v -304 -368 0
v -304 -352 0
v -288 -352 0
v -272 -368 0
v -288 -368 0
v -288 -352 0
v -272 -352 0
v -256 -368 0
v -272 -368 0
v -272 -352 0
v -256 -352 0
v -224 -368 0
v -240 -368 0
v -240 -352 0
v -224 -352 0
v -176 -368 0
v -192 -368 0
v -192 -352 0
v -176 -352 0
v -160 -368 0
v -176 -368 0
v -176 -352 0
v -160 -352 0
v -144 -368 0
v -160 -368 0
v -160 -352 0
v -144 -352 0
v -32 -368 0
v -48 -368 0
v -48 -352 0
v -32 -352 0
v -16 -368 0
v -32 -368 0
v -32 -352 0
v -16 -352 0
v 0 -368 0
v -16 -368 0
v -16 -352 0
v 0 -352 0
v -384 -384 0
v -400 -384 0
v -400 -368 0
v -384 -368 0
v -368 -384 0
v -384 -384 0
v -384 -368 0
v -368 -368 0
v -352 -384 0
v -368 -384 0
v -368 -368 0
v -352 -368 0
v -336 -384 0
v -352 -384 0
v -352 -368 0
v -336 -368 0
v -320 -384 0
v -336 -384 0
v -336 -368 0
v -320 -368 0
v -304 -384 0
v -320 -384 0
v -320 -368 0
v -304 -368 0
v -288 -384 0
v -304 -384 0
v -304 -368 0
v -288 -368 0
v -272 -384 0
v -288 -384 0
v -288 -368 0
v -272 -368 0
v -256 -384 0
v -272 -384 0
v -272 -368 0
v -256 -368 0
v -224 -384 0
v -240 -384 0
v -240 -368 0
v -224 -368 0
v -176 -384 0
v -192 -384 0
v -192 -368 0
v -176 -368 0
v -160 -384 0
v -176 -384 0
v -176 -368 0
v -160 -368 0
v -144 -384 0
v -160 -384 0
v -160 -368 0
v -144 -368 0
v 0 -384 0
v -16 -384 0
v -16 -368 0
v 0 -368 0
v -384 -400 0
v -400 -400 0
v -400 -384 0
v -384 -384 0
v -368 -400 0
v -384 -400 0
v -384 -384 0
v -368 -384 0
v -352 -400 0
v -368 -400 0
v -368 -384 0
v -352 -384 0
v -336 -400 0
v -352 -400 0
v -352 -384 0
v -336 -384 0
v -320 -400 0
v -336 -400 0
v -336 -384 0
v -320 -384 0
v -304 -400 0
v -320 -400 0
v -320 -384 0
v -304 -384 0
v -288 -400 0
v -304 -400 0
v -304 -384 0
v -288 -384 0
v -272 -400 0
v -288 -400 0
v -288 -384 0
v -272 -384 0
v -256 -400 0
v -272 -400 0
v -272 -384 0
v -256 -384 0
v -240 -400 0
v -256 -400 0
v -256 -384 0
v -240 -384 0
v -224 -400 0
v -240 -400 0
v -240 -384 0
v -224 -384 0
v -176 -400 0
v -192 -400 0
v -192 -384 0
v -176 -384 0
v -160 -400 0
v -176 -400 0
v -176 -384 0
v -160 -384 0
v -144 -400 0
v -160 -400 0
v -160 -384 0
v -144 -384 0
v -128 -400 0
v -144 -400 0
v -144 -384 0
v -128 -384 0
v -112 -400 0
v -128 -400 0
v -128 -384 0
v -112 -384 0
v -96 -400 0
v -112 -400 0
v -112 -384 0
v -96 -384 0
v -80 -400 0
v -96 -400 0
v -96 -384 0
v -80 -384 0
v -64 -400 0
v -80 -400 0
v -80 -384 0
v -64 -384 0
v -48 -400 0
v -64 -400 0
v -64 -384 0
v -48 -384 0
v -32 -400 0
v -48 -400 0
v -48 -384 0
v -32 -384 0
v -16 -400 0
v -32 -400 0
v -32 -384 0
v -16 -384 0
v 0 -400 0
v -16 -400 0
v -16 -384 0
v 0 -384 0

# Texture cooridinates (Count = 127)
vt 0.175 0.5
vt 0.2 0.5
vt 0.2 0.5277778
vt 0.175 0.5277778
vt 0.125 0.4444444
vt 0.15 0.4444444
vt 0.15 0.4722222
vt 0.125 0.4722222
vt 0.125 0.5
vt 0.15 0.5
vt 0.15 0.5277778
vt 0.125 0.5277778
vt 0.2 0.5555556
vt 0.175 0.5555556
vt 0.175 0.4722222
vt 0.05 0.1388889
vt 0.075 0.1388889
vt 0.075 0.1666667
vt 0.05 0.1666667
vt 0 0.1388889
vt 0.025 0.1388889
vt 0.025 0.1666667
vt 0 0.1666667
vt 0.75 0.8611111
vt 0.775 0.8611111
vt 0.775 0.8888889
vt 0.75 0.8888889
vt 0.725 0.8611111
vt 0.725 0.8888889
vt 0.7 0.8611111
vt 0.7 0.8888889
vt 0.025 0.08333331
vt 0.05 0.08333331
vt 0.05 0.1111111
vt 0.025 0.1111111
vt 0 0.08333331
vt 0 0.1111111
vt 0.2 0.4722222
vt 0.6 0.7222222
vt 0.625 0.7222222
vt 0.625 0.75
vt 0.6 0.75
vt 0.575 0.7222222
vt 0.575 0.75
vt 0.55 0.7222222
vt 0.55 0.75
vt 0.875 0.9444444
vt 0.9 0.9444444
vt 0.9 0.9722222
vt 0.875 0.9722222
vt 0.75 0.8333333
vt 0.775 0.8333333
vt 0.725 0.8333333
vt 0.7 0.8333333
vt 0.025 0.05555558
vt 0.05 0.05555558
vt 0 0.05555558
vt 0.8 0.9444444
vt 0.825 0.9444444
vt 0.825 0.9722222
vt 0.8 0.9722222
vt 0.6 0.6944444
vt 0.625 0.6944444
vt 0.575 0.6944444
vt 0.55 0.6944444
vt 0.8 0.9166667
vt 0.825 0.9166667
vt 0.6 0.6666666
vt 0.625 0.6666666
vt 0.575 0.6666666
vt 0.55 0.6666666
vt 0.8 0.8888889
vt 0.825 0.8888889
vt 0.775 0.9166667
vt 0.8 0.8611111
vt 0.825 0.8611111
vt 0.05 0.1944444
vt 0.025 0.1944444
vt 0.15 0.5555556
vt 0.125 0.5555556
vt 0.125 0.9722222
vt 0.15 0.9722222
vt 0.15 1
vt 0.125 1
vt 0.1 0.9722222
vt 0.1 1
vt 0.35 0.6944444
vt 0.375 0.6944444
vt 0.375 0.7222222
vt 0.35 0.7222222
vt 0.35 0.75
vt 0.375 0.75
vt 0.375 0.7777778
vt 0.35 0.7777778
vt 0.325 0.75
vt 0.325 0.7777778
vt 0.325 0.7222222
vt 0.125 0.8333333
vt 0.15 0.8333333
vt 0.15 0.8611111
vt 0.125 0.8611111
vt 0.1 0.8333333
vt 0.1 0.8611111
vt 0.075 0.8333333
vt 0.075 0.8611111
vt 0.05 0.8888889
vt 0.075 0.8888889
vt 0.075 0.9166667
vt 0.05 0.9166667
vt 0.025 0.8888889
vt 0.025 0.9166667
vt 0 0.8888889
vt 0 0.9166667
vt 0.05 0.8611111
vt 0.025 0.8611111
vt 0 0.8611111
vt 0 0.9722222
vt 0.025 0.9722222
vt 0.025 1
vt 0 1
vt 0.05 0.8333333
vt 0.025 0.8333333
vt 0 0.8333333
vt 0.1 0.4444444
vt 0.1 0.4722222
vt 0.075 0.4444444
vt 0.075 0.4722222

# Normal
vn 0 0 -1

# Mesh description
g OOverworld2_mesh_0002

# Faces
f 1/1/1 2/2/1 3/3/1 4/4/1
f 5/5/1 6/6/1 7/7/1 8/8/1
f 9/5/1 10/6/1 11/7/1 12/8/1
f 13/5/1 14/6/1 15/7/1 16/8/1
f 17/5/1 18/6/1 19/7/1 20/8/1
f 21/5/1 22/6/1 23/7/1 24/8/1
f 25/5/1 26/6/1 27/7/1 28/8/1
f 29/5/1 30/6/1 31/7/1 32/8/1
f 33/5/1 34/6/1 35/7/1 36/8/1
f 37/5/1 38/6/1 39/7/1 40/8/1
f 41/9/1 42/10/1 43/11/1 44/12/1
f 45/10/1 46/1/1 47/4/1 48/11/1
f 49/5/1 50/6/1 51/7/1 52/8/1
f 53/5/1 54/6/1 55/7/1 56/8/1
f 57/5/1 58/6/1 59/7/1 60/8/1
f 61/5/1 62/6/1 63/7/1 64/8/1
f 65/5/1 66/6/1 67/7/1 68/8/1
f 69/5/1 70/6/1 71/7/1 72/8/1
f 73/5/1 74/6/1 75/7/1 76/8/1
f 77/5/1 78/6/1 79/7/1 80/8/1
f 81/5/1 82/6/1 83/7/1 84/8/1
f 85/5/1 86/6/1 87/7/1 88/8/1
f 89/4/1 90/3/1 91/13/1 92/14/1
f 93/7/1 94/15/1 95/1/1 96/10/1
f 97/16/1 98/17/1 99/18/1 100/19/1
f 101/20/1 102/21/1 103/22/1 104/23/1
f 105/24/1 106/25/1 107/26/1 108/27/1
f 109/28/1 110/24/1 111/27/1 112/29/1
f 113/30/1 114/28/1 115/29/1 116/31/1
f 117/32/1 118/33/1 119/34/1 120/35/1
f 121/36/1 122/32/1 123/35/1 124/37/1
f 125/15/1 126/38/1 127/2/1 128/1/1
f 129/7/1 130/15/1 131/1/1 132/10/1
f 133/39/1 134/40/1 135/41/1 136/42/1
f 137/43/1 138/39/1 139/42/1 140/44/1
f 141/45/1 142/43/1 143/44/1 144/46/1
f 145/16/1 146/17/1 147/18/1 148/19/1
f 149/20/1 150/21/1 151/22/1 152/23/1
f 153/47/1 154/48/1 155/49/1 156/50/1
f 157/51/1 158/52/1 159/25/1 160/24/1
f 161/53/1 162/51/1 163/24/1 164/28/1
f 165/54/1 166/53/1 167/28/1 168/30/1
f 169/47/1 170/48/1 171/49/1 172/50/1
f 173/55/1 174/56/1 175/33/1 176/32/1
f 177/57/1 178/55/1 179/32/1 180/36/1
f 181/15/1 182/38/1 183/2/1 184/1/1
f 185/7/1 186/15/1 187/1/1 188/10/1
f 189/58/1 190/59/1 191/60/1 192/61/1
f 193/62/1 194/63/1 195/40/1 196/39/1
f 197/64/1 198/62/1 199/39/1 200/43/1
f 201/65/1 202/64/1 203/43/1 204/45/1
f 205/58/1 206/59/1 207/60/1 208/61/1
f 209/16/1 210/17/1 211/18/1 212/19/1
f 213/20/1 214/21/1 215/22/1 216/23/1
f 217/15/1 218/38/1 219/2/1 220/1/1
f 221/7/1 222/15/1 223/1/1 224/10/1
f 225/66/1 226/67/1 227/59/1 228/58/1
f 229/68/1 230/69/1 231/63/1 232/62/1
f 233/70/1 234/68/1 235/62/1 236/64/1
f 237/71/1 238/70/1 239/64/1 240/65/1
f 241/66/1 242/67/1 243/59/1 244/58/1
f 245/16/1 246/17/1 247/18/1 248/19/1
f 249/20/1 250/21/1 251/22/1 252/23/1
f 253/72/1 254/73/1 255/67/1 256/66/1
f 257/26/1 258/72/1 259/66/1 260/74/1
f 261/15/1 262/38/1 263/2/1 264/1/1
f 265/7/1 266/15/1 267/1/1 268/10/1
f 269/16/1 270/17/1 271/18/1 272/19/1
f 273/20/1 274/21/1 275/22/1 276/23/1
f 277/75/1 278/76/1 279/73/1 280/72/1
f 281/25/1 282/75/1 283/72/1 284/26/1
f 285/15/1 286/38/1 287/2/1 288/1/1
f 289/7/1 290/15/1 291/1/1 292/10/1
f 293/16/1 294/17/1 295/18/1 296/19/1
f 297/20/1 298/21/1 299/22/1 300/23/1
f 301/15/1 302/38/1 303/2/1 304/1/1
f 305/7/1 306/15/1 307/1/1 308/10/1
f 309/22/1 310/19/1 311/77/1 312/78/1
f 313/22/1 314/19/1 315/77/1 316/78/1
f 317/22/1 318/19/1 319/77/1 320/78/1
f 321/22/1 322/19/1 323/77/1 324/78/1
f 325/22/1 326/19/1 327/77/1 328/78/1
f 329/22/1 330/19/1 331/77/1 332/78/1
f 333/22/1 334/19/1 335/77/1 336/78/1
f 337/22/1 338/19/1 339/77/1 340/78/1
f 341/22/1 342/19/1 343/77/1 344/78/1
f 345/57/1 346/55/1 347/32/1 348/36/1
f 349/20/1 350/21/1 351/22/1 352/23/1
f 353/11/1 354/4/1 355/14/1 356/79/1
f 357/12/1 358/11/1 359/79/1 360/80/1
f 361/15/1 362/38/1 363/2/1 364/1/1
f 365/7/1 366/15/1 367/1/1 368/10/1
f 369/20/1 370/21/1 371/22/1 372/23/1
f 373/10/1 374/1/1 375/4/1 376/11/1
f 377/9/1 378/10/1 379/11/1 380/12/1
f 381/15/1 382/38/1 383/2/1 384/1/1
f 385/7/1 386/15/1 387/1/1 388/10/1
f 389/32/1 390/33/1 391/34/1 392/35/1
f 393/35/1 394/34/1 395/16/1 396/21/1
f 397/35/1 398/34/1 399/16/1 400/21/1
f 401/35/1 402/34/1 403/16/1 404/21/1
f 405/35/1 406/34/1 407/16/1 408/21/1
f 409/35/1 410/34/1 411/16/1 412/21/1
f 413/35/1 414/34/1 415/16/1 416/21/1
f 417/35/1 418/34/1 419/16/1 420/21/1
f 421/35/1 422/34/1 423/16/1 424/21/1
f 425/35/1 426/34/1 427/16/1 428/21/1
f 429/37/1 430/35/1 431/21/1 432/20/1
f 433/15/1 434/38/1 435/2/1 436/1/1
f 437/7/1 438/15/1 439/1/1 440/10/1
f 441/20/1 442/21/1 443/22/1 444/23/1
f 445/72/1 446/73/1 447/67/1 448/66/1
f 449/26/1 450/72/1 451/66/1 452/74/1
f 453/15/1 454/38/1 455/2/1 456/1/1
f 457/7/1 458/15/1 459/1/1 460/10/1
f 461/20/1 462/21/1 463/22/1 464/23/1
f 465/81/1 466/82/1 467/83/1 468/84/1
f 469/85/1 470/81/1 471/84/1 472/86/1
f 473/87/1 474/88/1 475/89/1 476/90/1
f 477/75/1 478/76/1 479/73/1 480/72/1
f 481/25/1 482/75/1 483/72/1 484/26/1
f 485/15/1 486/38/1 487/2/1 488/1/1
f 489/7/1 490/15/1 491/1/1 492/10/1
f 493/20/1 494/21/1 495/22/1 496/23/1
f 497/91/1 498/92/1 499/93/1 500/94/1
f 501/95/1 502/91/1 503/94/1 504/96/1
f 505/15/1 506/38/1 507/2/1 508/1/1
f 509/7/1 510/15/1 511/1/1 512/10/1
f 513/20/1 514/21/1 515/22/1 516/23/1
f 517/90/1 518/89/1 519/92/1 520/91/1
f 521/97/1 522/90/1 523/91/1 524/95/1
f 525/72/1 526/73/1 527/67/1 528/66/1
f 529/26/1 530/72/1 531/66/1 532/74/1
f 533/15/1 534/38/1 535/2/1 536/1/1
f 537/7/1 538/15/1 539/1/1 540/10/1
f 541/20/1 542/21/1 543/22/1 544/23/1
f 545/87/1 546/88/1 547/89/1 548/90/1
f 549/75/1 550/76/1 551/73/1 552/72/1
f 553/25/1 554/75/1 555/72/1 556/26/1
f 557/15/1 558/38/1 559/2/1 560/1/1
f 561/7/1 562/15/1 563/1/1 564/10/1
f 565/20/1 566/21/1 567/22/1 568/23/1
f 569/11/1 570/4/1 571/14/1 572/79/1
f 573/12/1 574/11/1 575/79/1 576/80/1
f 577/15/1 578/38/1 579/2/1 580/1/1
f 581/7/1 582/15/1 583/1/1 584/10/1
f 585/20/1 586/21/1 587/22/1 588/23/1
f 589/10/1 590/1/1 591/4/1 592/11/1
f 593/9/1 594/10/1 595/11/1 596/12/1
f 597/15/1 598/38/1 599/2/1 600/1/1
f 601/7/1 602/15/1 603/1/1 604/10/1
f 605/55/1 606/56/1 607/33/1 608/32/1
f 609/22/1 610/19/1 611/77/1 612/78/1
f 613/22/1 614/19/1 615/77/1 616/78/1
f 617/22/1 618/19/1 619/77/1 620/78/1
f 621/22/1 622/19/1 623/77/1 624/78/1
f 625/22/1 626/19/1 627/77/1 628/78/1
f 629/22/1 630/19/1 631/77/1 632/78/1
f 633/22/1 634/19/1 635/77/1 636/78/1
f 637/22/1 638/19/1 639/77/1 640/78/1
f 641/22/1 642/19/1 643/77/1 644/78/1
f 645/15/1 646/38/1 647/2/1 648/1/1
f 649/7/1 650/15/1 651/1/1 652/10/1
f 653/20/1 654/21/1 655/22/1 656/23/1
f 657/15/1 658/38/1 659/2/1 660/1/1
f 661/7/1 662/15/1 663/1/1 664/10/1
f 665/20/1 666/21/1 667/22/1 668/23/1
f 669/15/1 670/38/1 671/2/1 672/1/1
f 673/7/1 674/15/1 675/1/1 676/10/1
f 677/35/1 678/34/1 679/16/1 680/21/1
f 681/35/1 682/34/1 683/16/1 684/21/1
f 685/35/1 686/34/1 687/16/1 688/21/1
f 689/35/1 690/34/1 691/16/1 692/21/1
f 693/35/1 694/34/1 695/16/1 696/21/1
f 697/35/1 698/34/1 699/16/1 700/21/1
f 701/35/1 702/34/1 703/16/1 704/21/1
f 705/35/1 706/34/1 707/16/1 708/21/1
f 709/35/1 710/34/1 711/16/1 712/21/1
f 713/36/1 714/32/1 715/35/1 716/37/1
f 717/20/1 718/21/1 719/22/1 720/23/1
f 721/98/1 722/99/1 723/100/1 724/101/1
f 725/102/1 726/98/1 727/101/1 728/103/1
f 729/104/1 730/102/1 731/103/1 732/105/1
f 733/15/1 734/38/1 735/2/1 736/1/1
f 737/7/1 738/15/1 739/1/1 740/10/1
f 741/106/1 742/107/1 743/108/1 744/109/1
f 745/110/1 746/106/1 747/109/1 748/111/1
f 749/112/1 750/110/1 751/111/1 752/113/1
f 753/106/1 754/107/1 755/108/1 756/109/1
f 757/110/1 758/106/1 759/109/1 760/111/1
f 761/112/1 762/110/1 763/111/1 764/113/1
f 765/16/1 766/17/1 767/18/1 768/19/1
f 769/20/1 770/21/1 771/22/1 772/23/1
f 773/11/1 774/4/1 775/14/1 776/79/1
f 777/12/1 778/11/1 779/79/1 780/80/1
f 781/15/1 782/38/1 783/2/1 784/1/1
f 785/7/1 786/15/1 787/1/1 788/10/1
f 789/114/1 790/105/1 791/107/1 792/106/1
f 793/115/1 794/114/1 795/106/1 796/110/1
f 797/116/1 798/115/1 799/110/1 800/112/1
f 801/117/1 802/118/1 803/119/1 804/120/1
f 805/117/1 806/118/1 807/119/1 808/120/1
f 809/114/1 810/105/1 811/107/1 812/106/1
f 813/115/1 814/114/1 815/106/1 816/110/1
f 817/116/1 818/115/1 819/110/1 820/112/1
f 821/16/1 822/17/1 823/18/1 824/19/1
f 825/20/1 826/21/1 827/22/1 828/23/1
f 829/32/1 830/33/1 831/34/1 832/35/1
f 833/36/1 834/32/1 835/35/1 836/37/1
f 837/10/1 838/1/1 839/4/1 840/11/1
f 841/9/1 842/10/1 843/11/1 844/12/1
f 845/15/1 846/38/1 847/2/1 848/1/1
f 849/7/1 850/15/1 851/1/1 852/10/1
f 853/121/1 854/104/1 855/105/1 856/114/1
f 857/122/1 858/121/1 859/114/1 860/115/1
f 861/123/1 862/122/1 863/115/1 864/116/1
f 865/117/1 866/118/1 867/119/1 868/120/1
f 869/117/1 870/118/1 871/119/1 872/120/1
f 873/121/1 874/104/1 875/105/1 876/114/1
f 877/122/1 878/121/1 879/114/1 880/115/1
f 881/123/1 882/122/1 883/115/1 884/116/1
f 885/16/1 886/17/1 887/18/1 888/19/1
f 889/20/1 890/21/1 891/22/1 892/23/1
f 893/55/1 894/56/1 895/33/1 896/32/1
f 897/57/1 898/55/1 899/32/1 900/36/1
f 901/15/1 902/38/1 903/2/1 904/1/1
f 905/124/1 906/5/1 907/8/1 908/125/1
f 909/8/1 910/7/1 911/10/1 912/9/1
f 913/8/1 914/7/1 915/10/1 916/9/1
f 917/8/1 918/7/1 919/10/1 920/9/1
f 921/8/1 922/7/1 923/10/1 924/9/1
f 925/8/1 926/7/1 927/10/1 928/9/1
f 929/8/1 930/7/1 931/10/1 932/9/1
f 933/8/1 934/7/1 935/10/1 936/9/1
f 937/8/1 938/7/1 939/10/1 940/9/1
f 941/8/1 942/7/1 943/10/1 944/9/1
f 945/12/1 946/11/1 947/79/1 948/80/1
f 949/11/1 950/4/1 951/14/1 952/79/1
f 953/8/1 954/7/1 955/10/1 956/9/1
f 957/8/1 958/7/1 959/10/1 960/9/1
f 961/8/1 962/7/1 963/10/1 964/9/1
f 965/8/1 966/7/1 967/10/1 968/9/1
f 969/8/1 970/7/1 971/10/1 972/9/1
f 973/8/1 974/7/1 975/10/1 976/9/1
f 977/8/1 978/7/1 979/10/1 980/9/1
f 981/8/1 982/7/1 983/10/1 984/9/1
f 985/8/1 986/7/1 987/10/1 988/9/1
f 989/8/1 990/7/1 991/10/1 992/9/1
f 993/126/1 994/124/1 995/125/1 996/127/1

